<svg id="visual" viewBox="0 0 960 300" width="960" height="300" xmlns="http://www.w3.org/2000/svg" xmlns:xlink="http://www.w3.org/1999/xlink" version="1.1"><rect x="0" y="0" width="960" height="300" fill="#ffffff"></rect><path d="M0 123L20 113.7C40 104.3 80 85.7 120 83.8C160 82 200 97 240 103.3C280 109.7 320 107.3 360 98.7C400 90 440 75 480 73.7C520 72.3 560 84.7 600 94.8C640 105 680 113 720 116.7C760 120.3 800 119.7 840 114.8C880 110 920 101 940 96.5L960 92L960 0L940 0C920 0 880 0 840 0C800 0 760 0 720 0C680 0 640 0 600 0C560 0 520 0 480 0C440 0 400 0 360 0C320 0 280 0 240 0C200 0 160 0 120 0C80 0 40 0 20 0L0 0Z" fill="#a179da"></path><path d="M0 58L20 61.3C40 64.7 80 71.3 120 67.8C160 64.3 200 50.7 240 48.8C280 47 320 57 360 65.5C400 74 440 81 480 83.5C520 86 560 84 600 79.3C640 74.7 680 67.3 720 63.7C760 60 800 60 840 64.8C880 69.7 920 79.3 940 84.2L960 89L960 0L940 0C920 0 880 0 840 0C800 0 760 0 720 0C680 0 640 0 600 0C560 0 520 0 480 0C440 0 400 0 360 0C320 0 280 0 240 0C200 0 160 0 120 0C80 0 40 0 20 0L0 0Z" fill="#8751db"></path><path d="M0 38L20 34.7C40 31.3 80 24.7 120 24.7C160 24.7 200 31.3 240 31.3C280 31.3 320 24.7 360 22.2C400 19.7 440 21.3 480 25.3C520 29.3 560 35.7 600 35.7C640 35.7 680 29.3 720 27.3C760 25.3 800 27.7 840 31.8C880 36 920 42 940 45L960 48L960 0L940 0C920 0 880 0 840 0C800 0 760 0 720 0C680 0 640 0 600 0C560 0 520 0 480 0C440 0 400 0 360 0C320 0 280 0 240 0C200 0 160 0 120 0C80 0 40 0 20 0L0 0Z" fill="#6821db"></path></svg>